<?xml version="1.0" encoding="utf-8" ?>
<svg xmlns="http://www.w3.org/2000/svg" xmlns:xlink="http://www.w3.org/1999/xlink" width="24" height="24" viewBox="0 0 24 24">
	<defs>
		<clipPath id="clipPath1972954179">
			<path d="M0 0L24 0L24 24L0 24L0 0Z" fill-rule="nonzero" transform="matrix(1 0 0 1 0 0)"/>
		</clipPath>
	</defs>
	<g clip-path="url(#clipPath1972954179)">
		<rect width="21" height="16.5" rx="2.25" ry="2.25" stroke-width="1.5" stroke-linejoin="round" transform="matrix(1 0 0 1 1.5 5.25)" stroke="rgb(143, 76, 56)" fill="transparent"/>
		<path d="M-0.75 1.5L-0.75 3C-0.75 3.41421 -0.41421 3.75 0 3.75C0.41421 3.75 0.75 3.41421 0.75 3L0.75 1.5Q0.75 1.18934 0.96967 0.96967Q1.18934 0.75 1.5 0.75L9 0.75Q9.31066 0.75 9.53033 0.96967Q9.75 1.18934 9.75 1.5L9.75 3C9.75 3.41421 10.0858 3.75 10.5 3.75C10.9142 3.75 11.25 3.41421 11.25 3L11.25 1.5Q11.25 0.568019 10.591 -0.0909905Q9.93198 -0.75 9 -0.75L1.5 -0.75Q0.56802 -0.75 -0.0909898 -0.0909905Q-0.75 0.568019 -0.75 1.5ZM5.25 6.75C4.83579 6.75 4.5 7.08579 4.5 7.5L4.5 10.5L1.5 10.5C1.08579 10.5 0.75 10.8358 0.75 11.25C0.75 11.6642 1.08579 12 1.5 12L4.5 12L4.5 15C4.5 15.4142 4.83579 15.75 5.25 15.75C5.66421 15.75 6 15.4142 6 15L6 12L9 12C9.41421 12 9.75 11.6642 9.75 11.25C9.75 10.8358 9.41421 10.5 9 10.5L6 10.5L6 7.5C6 7.08579 5.66421 6.75 5.25 6.75Z" fill-rule="evenodd" transform="matrix(1 0 0 1 6.75 2.25)" fill="rgb(143, 76, 56)"/>
	</g>
</svg>
